/* XPM */
static char *bf64a9cd38df4b16e1ee26334d933a5eFnybSYYyWEP7WhB9[] = {
/* columns rows colors chars-per-pixel */
"50 50 195 2 ",
"   c #4E4342",
".  c #524442",
"X  c #524746",
"o  c #524844",
"O  c #5B4843",
"+  c #544A48",
"@  c #5D5352",
"#  c #615756",
"$  c #625956",
"%  c #645D5E",
"&  c #6A5F5F",
"*  c #7D5F54",
"=  c #6C615D",
"-  c #76645E",
";  c #786B5F",
":  c #7F6B5E",
">  c #696060",
",  c #6C6261",
"<  c #6B6666",
"1  c #726662",
"2  c #776661",
"3  c #736765",
"4  c #776964",
"5  c #7B6961",
"6  c #7F6B65",
"7  c #7E6E67",
"8  c #7D6D68",
"9  c #9B6D5A",
"0  c #9A6C5C",
"q  c #9F705E",
"w  c #B16D5E",
"e  c #A1725F",
"r  c #876A64",
"t  c #866F66",
"y  c #8D6860",
"u  c #8D6D65",
"i  c #83726B",
"p  c #857369",
"a  c #86776B",
"s  c #87756F",
"d  c #88776A",
"f  c #8A776F",
"g  c #8E7D6C",
"h  c #917063",
"j  c #967569",
"k  c #9B7168",
"l  c #99766B",
"z  c #947A6E",
"x  c #9F7C6D",
"c  c #857B72",
"v  c #8D7870",
"b  c #8E7875",
"n  c #907A70",
"m  c #947B73",
"M  c #A87762",
"N  c #AA7C66",
"B  c #A1786D",
"V  c #AC7869",
"C  c #AE7D68",
"Z  c #B47E67",
"A  c #B17E69",
"S  c #9B8373",
"D  c #9E8373",
"F  c #B28067",
"G  c #B4806B",
"H  c #B8836D",
"J  c #A18777",
"K  c #AA8075",
"L  c #AC8376",
"P  c #A48F7C",
"I  c #B28373",
"U  c #B48171",
"Y  c #B58970",
"T  c #AC9075",
"R  c #AB937D",
"E  c #B99B7F",
"W  c #BC9C7C",
"Q  c #CF866C",
"!  c #D9876F",
"~  c #DC866E",
"^  c #C58773",
"/  c #C28B73",
"(  c #CB8D70",
")  c #CF8E71",
"_  c #C88A76",
"`  c #D58F73",
"'  c #D08E75",
"]  c #D68E74",
"[  c #DB8D70",
"{  c #C4977C",
"}  c #CE9178",
"|  c #CF9479",
" . c #CD917E",
".. c #CF997F",
"X. c #D79377",
"o. c #D89077",
"O. c #DD9376",
"+. c #DA9475",
"@. c #DE9877",
"#. c #D69179",
"$. c #D3947A",
"%. c #D7937C",
"&. c #D1967C",
"*. c #D7967D",
"=. c #DA937B",
"-. c #DA9579",
";. c #DE9778",
":. c #E18E75",
">. c #E39177",
",. c #E19676",
"<. c #E9937B",
"1. c #EB967C",
"2. c #EC967C",
"3. c #E19A7A",
"4. c #E7997A",
"5. c #E79D7A",
"6. c #E1987D",
"7. c #E49B7F",
"8. c #EA997B",
"9. c #ED9B7F",
"0. c #E89D7D",
"q. c #EE9D7F",
"w. c #E9A17F",
"e. c #EDA37D",
"r. c #B79F8B",
"t. c #B19D8E",
"y. c #BFA283",
"u. c #BDA186",
"i. c #B2A28D",
"p. c #BFA388",
"a. c #BCA58A",
"s. c #D89680",
"d. c #DE9A81",
"f. c #E29882",
"g. c #E69D86",
"h. c #EE9B80",
"j. c #E99F83",
"k. c #EE9C80",
"l. c #E89C84",
"z. c #E79F88",
"x. c #C1A58A",
"c. c #D5A088",
"v. c #D0A48B",
"b. c #C2A890",
"n. c #C1AA97",
"m. c #CCB094",
"M. c #CFB797",
"N. c #CEB79F",
"B. c #D0B29B",
"V. c #D1B69A",
"C. c #D2B79E",
"Z. c #D2B99C",
"A. c #D3B89F",
"S. c #D3BB9E",
"D. c #D4BB9E",
"F. c #EAA082",
"G. c #EFA183",
"H. c #EDA480",
"J. c #EDA187",
"K. c #EAA188",
"L. c #EFA58B",
"P. c #EFA78F",
"I. c #F3A188",
"U. c #F4A289",
"Y. c #EFA891",
"T. c #F4AB93",
"R. c #D3BBA0",
"E. c #D4BBA1",
"W. c #D5BBA4",
"Q. c #D3BFA5",
"!. c #D5BDA4",
"~. c #DFC6A8",
"^. c #DDC3AC",
"/. c #E0C5AB",
"(. c #E1C8AF",
"). c #E2C8AF",
"_. c #E3CBB3",
"`. c #E7CFB2",
"'. c #E5CEB4",
"]. c #E7D0B4",
"[. c #E8D0B4",
"{. c #E9D3B4",
"}. c #EAD3B7",
"|. c #EBD5B7",
" X c #ECD6B7",
".X c #EBD5B9",
"XX c #ECD4B8",
"oX c #EDD7B9",
"OX c #EDD7BC",
"+X c #EED8BC",
"@X c #F0DABB",
"#X c #F1DBBC",
"$X c #F2DCBF",
"%X c #F2DBC1",
"&X c #F5DEC1",
/* pixels */
"#X#X#X#X#X#X#XoX X+X}. X#X#X#X#X#XOX#X$XOX+X#X.X#X+X#XOX$X&X&X$X+X+X#X#XOX.XOX&X&X+X+X+X+X+X+X+X+X+X",
"#X#X#X#X#X#X#X XoXoXoXoX+X+X#X$X+XoXoXOX#X+X$X#X%X#X$X`.oX+X%X#X%X+X$X$XOXOX$X+X+X+XOXOXOXOXOXOXOXOX",
"+X+X+X+X+X+X+X XoX X+X+XoX+X#X#X#X+XOX.X+X$X#X$X&X$X&X#X}.OX#X+XoX.XOX#X%X#X#X#X+X#X+X+X+X+X+X+X+X+X",
"oXoXoXoXoXoXoXoX+X.X#XoX@X#X#X#X$X$X#X+X#X.X~.!.W.m.n.n./.#X#XOXOX#XoX+X+XOX+X+X%X+X+X+X+X+X+X+X+X+X",
"|.|.|.|.|.|.|..XoX.X#XoX+X+XoX+X#X+X#X!.R.a.t.g m d a i a P }..X}.oX`.].OXOX.X+X+XOX+X+X+X+X+X+X+X+X",
"oXoXoXoXoXoXoX.X}. X].$XoX#X+X+X+X@X`.p i 8 4 3 & % % > 1 4 p B.oX+X+X+XOXOXOX.XOX#X.X.X.X.X.X.X.X.X",
"}.}.}.}.}.}.}.}.}..X}.oX#X+XoX+X).r.i s 7 3 , % % % > > , , 1 4 S Q.OX.XOX+X+XOX.X.X+X+X+X+X+X+X+X+X",
"}.}.}.}.}.}.}.oX|.oXoXoXOX+X`.#Xn.s s i 1 & % % % 6 1 1 , > , 1 4 2 B.].}.OXoXOXOX.X+X+X+X+X+X+X+X+X",
"oXoXoXoXoXoXoX XoXoXoXoX}.}.OXn.s b s 8 & % % & = d 8 1 , > > 1 4 4 7 n.}.OX.XOXOX+X%X%X#X#X#X#X%X#X",
".X.X.X.X.X.X.X|.|.}.}.#XoXoXR s s f b = , & - u B L B 2 & 8 = > 1 4 4 f N.}.oXOXOXOX#X#X#X#X#X#X#X#X",
"}.}.}.}.}.}.}. X}.|.].oX@XB.v 7 i s 8 4 = B ^ '  . ./ l = 1 , 1 3 1 4 7 S !..X.XOX+XOXOXOXOXOXOXOXOX",
"}.}.}.}.}.}.}.).`.`. X}..XR 8 2 s p i - U ' -.;.6.=.#.^ k 2 8 1 3 3 8 i i a..X+XOX.X.X.X.X.X.X.X.X.X",
"}.}.}.}.}.}.{.{.`.`.`.`.n.7 2 6 d t - B ' =.3.7.7.7.d.$.U h 2 3 , 1 4 8 f d ^.OX}.}..X.X.X.X.X.X.X.X",
"}.}.}.}.|.}.}.`.`.`.).'.t.- 2 n J 6 u H ' ;.7.j.K.L.z.s._ B r 8 4 3 i i s m R }.oXoXOXOXOXoXOXOXOXOX",
"`.`.`.`.].`.`.`.`.`.`.Q.b s p P J - k _ X.3.7.F.L.P.P.d.' U u n f 3 i b i D S ^.}.}..X.X.X.X.X.X.X.X",
").).).).`.`.`.`.`.`.`.n.4 p J u.t u U } +.3.7.j.L.P.P.g.#.^ k d n i i m v v P a.`.`.oXoX}.oXoXoXoXoX",
"`.`.).).`.`.`.`.`.).E.; a d d T 5 B ^ X.;.4.l.j.K.P.L.z.%.} e - P v i J n 7 D R `.}.}.}.}.}.}.}.}.}.",
"`.).).).`.`.`.).~.!.Q.i t p S E : V ' +.;.0.F.K.P.P.L.K.d.' V r S P 8 n P b 6 R `.}.}.}.}.}.}.}.}.}.",
"~.~.~.~.~.~.~.!.R.R.i.d 6 2 d : r ^ ' =.6.0.j.L.Y.Y.P.L.g.=.H k r t 7 d v m 6 R C.}.}.}.}.}.}.}.}.}.",
"A.A.A.A.A.A.A.A.R.E.5 J 2 = t & u I _  .%.6.f.J.P.P.L.K.g.=.^ k z z 6 6 p f p z b.`.`.`.`.`.`.`.`.`.",
"A.D.D.D.A.A.A.R.R.R.= n & 4 i $ - r u h k _ #.f.l.l.l.f.d. ./ B u d - 2 6 i 5 6 r.`.`.`.`.`.`.`.`.`.",
"E.E.E.E.E.E.E.R.A.N.& 5 1 f i - B U / U B V ^ ' 6.6.=.#.^ k : - = n p & 2 2 f n r.'.'.'.'.'.'.'.'.'.",
"E.E.E.E.E.E.E.E.R.E.: p = p 5 N / ' $.d.' ^ ^ ] =.=.] ' _ ^ / I r 6 s & 4 6 5 d r.`.'.'.'.'.'.'.'.'.",
"D.D.D.D.D.D.D.A.C.V.t 2 - 6 0 H H Y / / / Q Q [ f.f.>.[ ] ` X.$.H : = # = 7 f d r.`.'.'.'.'.'.'.'.'.",
"D.D.D.D.D.D.D.A.C.m.: p 5 u H ( Z K m v B ^ ` [ L.L.4.:.] H N U A h = $ 2 d f P a.'.'.'.'.'.'.'.'.'.",
"D.D.D.D.D.D.D.A.C.V.t d : B } +.` ) ' } ' ] ,.:.J.L.9.0.] I - b K y 5 = 4 2 7 S E.`._._._._._._._._.",
"D.D.D.D.D.D.D.R.A.A.n.d u H -.6.7.6.6.6.l.0.>.:.q.J.h.G.7.' ^ .. .A k 6 8 = 2 n ).'.'.'.'.'.'.'.'.'.",
"A.A.A.A.A.A.A.A.C.C.B.* h / O.7.J.I.I.P.J.8.:.:.h.k.h.G.L.z.d.;.3.-.o.B 2 = S r.'.`.`.`.`.`.`.`.`.`.",
"A.A.A.A.A.A.A.A.C.C.a.H N $.O.4.h.I.U.I.J.>.! ~ 1.<.<.q.U.Y.P.L.L.L.j.*.D 4 p r._._._._._._._._._._.",
"D.D.D.D.D.D.D.C.C.N.p.H N $.=.4.h.I.U.I.h.:.! ! h.<.:.2.I.T.T.T.P.J.J.7.B 5 z n._._.`.`.`.`.`.`.`.`.",
"D.D.E.E.E.E.D.A.C.B.y.( / } o.>.1.h.J.G.<.! Q Q ! ~ :.<.k.L.T.T.P.J.l.f.B l r.^._.`.`.`.`.`.`.`.`.`.",
"A.A.A.A.A.A.A.C.C.b.y...} } ` O.>.1.h.2.:.Q Z w Z 9 Z :.h.I.P.L.I.h.l.d.U H ^._._._.'.'.'.'.'.'.'.'.",
"A.A.A.A.A.A.A.A.A.b.y.y.{ _ ' ] :.4.8.8.>.! Q Q Q ^ w :.h.J.J.J.l.l.f.s.| #._._.)._.].].].].].].].].",
"A.A.A.A.A.A.A.A.A.b.u.y.T Y ' ] O.4.8.8.4.>.4.l.6.K.1.1.k.J.J.J.l.l.d.&.' B._.`.`.)._._._._._._._._.",
"A.A.A.A.A.A.A.A.V.x.u.u.T Y } #.O.4.4.,.6.4.>.<.<.J.I.I.I.J.J.j.l.f.d.*.c.A._._._.).`.`.`.`.`.`.`.`.",
"D.D.D.D.D.D.D.A.A.b.u.a.y.{ } ' ;.3.,.Q Q Z Q Q ~ ~ :.j.F.F.F.F.j.d.d.c.m.Q._._.)._.`.`.`.`.`.`.`.`.",
"A.A.A.A.A.A.A.D.M.x.p.y.y.y. .( +.3.,.Q w w Q ! ! w w Q ` 0.w.F.7.d.c.B.N.^._._._._.'.'.'.'.'.'.'.'.",
"A.A.A.A.A.A.A.D.m.p.p.y.y.y.{ ( ) @.5.+.! ! ! ~ ~ ~ ~ ! ,.5.H.w.6.s.v.N.N./._._._._.}.}.}.}.}.}.}.}.",
"D.D.D.D.D.D.D.A.m.x.p.y.y.y.W _ ( ` 3.,.` ) Q Q Q ! :.,.0.e.w.3.*.s.N.N.E.)._.).).)._._._._._._._._.",
"D.D.D.D.D.D.D.E.M.x.p.p.y.E J h / ( +.,.,.o.! Q Q ] ;.4.e.F.3.X.&.B.R.R.Q._._.).)._.`.].].].].].].].",
"D.D.D.D.D.D.D.D.A.b.p.p.E - o o / H ) +.3.4.4.4.0.0.w.H.H.0.X.| L A.R.N.^._._._._.`.`.`.`.`.`.`.`.`.",
"D.D.D.D.D.D.D.A.D.b.p.E 5 X   . / G H ( +.3.8.0.0.F.F.w.7.$._ { 2 t.R.R.^._._.'._._.`.`.`.`.`.`.`.`.",
"D.D.D.D.D.D.D.A.D.m.p.R + X   . / G C Z ( ` O.O.O.3.3.@.} Y / ..2 , !.!.)._._._.).`.].].].].].].].].",
"A.A.A.A.A.A.A.A.D.M.p.= +     . / H N M M M Z Z Z ( / F A H _ ..- # g ^._._.`.)._.'.'.'.'.'.'.'.'.'.",
"A.A.A.A.A.A.A.D.A.D.x.@ X     O / H G N e 0 9 9 9 9 e M G / | &.- @ & P _.)._.)._.'.`.`.`.`.`.`.`.`.",
"D.D.D.D.D.D.D.D.A.A.= + X X O y H H G A M e 0 0 0 q M G / } $.| = @ % S N.^.)._.`.`.`.`.`.`.`.`.`.`.",
"A.A.A.A.A.A.A.R.a.t.$ + X @ y e G H H G C M e e e M H ^ ' $.$.| - # % 3 > P i._._.'.`.`.`.`.`.`.`.`.",
"N.N.N.N.N.N.N.m 4 # @ + + * 0 e A H H H G A C C G H / ' | | $. .: # % , > > % P n._._._._._._._._._.",
"7 7 8 8 7 8 8 @ @ @ @ + + * e M C G H H H G G H / _ } } $.&.*.} j $ $ > > % > > i c ^.^.^.^.^.^.^.^.",
"@ @ @ @ @ @ @ @ @ @ @ + + y N N C G H H H H H / } } $.$.*.*.s./ x # # % > $ % % > < 4 4 4 4 4 4 4 4 "
};
