/* XPM */
static char *_c2bc60137cf4815edbc2f659b47e4f6ku54kzU8hy1iNGj4[] = {
/* columns rows colors chars-per-pixel */
"50 50 2 1 ",
"  c black",
". c white",
/* pixels */
"                                                  ",
"                                                  ",
"                                                  ",
"                                                  ",
"                                                  ",
"                                                  ",
"                                                  ",
"                  ...                             ",
"            ......   ...                          ",
"           .            ..                        ",
"           .              .                       ",
"           .               .                      ",
"          .                 .                     ",
"          .                  .                    ",
"          .                   .                   ",
"           .                  .                   ",
"           .                  .                   ",
"            .                 .                   ",
"            .                 .                   ",
"             ..              ..                   ",
"               .           ...                    ",
"               ...  ........                      ",
"                  ....                            ",
"                    .                             ",
"                    .                             ",
"                    .                             ",
"                    .                             ",
"                     .                            ",
"                     .                            ",
"       .             .                            ",
"        ..................                        ",
"                     .    .........               ",
"                     .                            ",
"                     .                            ",
"                     .                            ",
"                     .                            ",
"                     .                            ",
"                     .                            ",
"                     .                            ",
"                     .                            ",
"                    ....                          ",
"                   ..   ..                        ",
"               ....       ...                     ",
"              ...            ..                   ",
"              .                ..                 ",
"              .                  .                ",
"                                  ..              ",
"                                   .              ",
"                                                  ",
"                                                  "
};
