/* XPM */
static char *_9dbb58affa042058f0257546f2aa2aebWLrXGR1xXfbA1Bj[] = {
/* columns rows colors chars-per-pixel */
"50 50 2 1 ",
"  c black",
". c white",
/* pixels */
"                                                  ",
"                                                  ",
"                                                  ",
"                                                  ",
"                                                  ",
"                                                  ",
"                                                  ",
"                                                  ",
"                    ................              ",
"                 ...               ..             ",
"               ..                                 ",
"                                                  ",
"               .                                  ",
"               .                                  ",
"               .                                  ",
"               .                                  ",
"               .                                  ",
"               .                                  ",
"               .                                  ",
"               .                                  ",
"               .                                  ",
"               .                                  ",
"               .                                  ",
"               .                                  ",
"               ..............                     ",
"               .             ....                 ",
"               .                 ...              ",
"               .                                  ",
"               .                                  ",
"               .                                  ",
"               .                                  ",
"               .                                  ",
"               .                                  ",
"               .                                  ",
"               .                                  ",
"               .                                  ",
"               .                                  ",
"               .                                  ",
"               .                                  ",
"               .                                  ",
"               ............                       ",
"                           ...........            ",
"                                                  ",
"                                                  ",
"                                                  ",
"                                                  ",
"                                                  ",
"                                                  ",
"                                                  ",
"                                                  "
};
